<svg id="Layer_1" enable-background="new 0 0 497 497" height="512" viewBox="0 0 497 497" width="512" xmlns="http://www.w3.org/2000/svg"><g><circle cx="248.5" cy="248.5" fill="#f7f7f7" r="248.5"/><ellipse cx="248.5" cy="248.5" fill="#91dafa" rx="208.889" ry="208.889" transform="matrix(.707 -.707 .707 .707 -102.932 248.5)"/><path d="m248.5 0c-5.038 0-10.036.168-15 .463 130.256 7.758 233.5 115.832 233.5 248.037s-103.244 240.279-233.5 248.037c4.964.295 9.962.463 15 .463 137.243 0 248.5-111.257 248.5-248.5s-111.257-248.5-248.5-248.5z" fill="#e6e6e6"/><path d="m248.5 39.611c-5.045 0-10.045.189-15 .541 108.363 7.69 193.889 98.026 193.889 208.348s-85.526 200.657-193.889 208.348c4.955.352 9.955.541 15 .541 115.366 0 208.889-93.522 208.889-208.889s-93.523-208.889-208.889-208.889z" fill="#75cff9"/><g fill="#b2e5fb"><path d="m122.715 268.077c-.348 0-.699-.024-1.054-.074-4.101-.577-6.96-4.369-6.383-8.471l11.036-78.501c.576-4.102 4.365-6.957 8.471-6.383 4.102.577 6.96 4.369 6.383 8.471l-11.036 78.501c-.527 3.748-3.739 6.457-7.417 6.457z"/><path d="m163.663 295.864c-2.946 0-5.741-1.748-6.936-4.641-1.58-3.829.242-8.213 4.071-9.794l27.156-11.209c3.828-1.581 8.214.242 9.794 4.071s-.242 8.213-4.071 9.794l-27.156 11.209c-.935.387-1.905.57-2.858.57z"/><path d="m193.508 397.895c-2.063 0-4.116-.846-5.598-2.505l-55.507-62.179c-2.759-3.09-2.49-7.831.601-10.59 3.089-2.759 7.83-2.489 10.589.601l55.507 62.178c2.759 3.09 2.49 7.831-.601 10.59-1.429 1.277-3.213 1.905-4.991 1.905z"/><path d="m293.779 174.978c-1.867 0-3.736-.692-5.19-2.087l-39.769-38.138c-2.989-2.867-3.089-7.615-.222-10.604 2.867-2.99 7.614-3.088 10.604-.222l39.769 38.138c2.989 2.867 3.089 7.615.222 10.605-1.473 1.535-3.442 2.308-5.414 2.308z"/><path d="m379.671 249.829c-1.847 0-3.696-.677-5.146-2.044l-33.802-31.881c-3.013-2.842-3.151-7.589-.31-10.602 2.843-3.015 7.589-3.151 10.603-.31l33.802 31.881c3.013 2.842 3.151 7.589.309 10.602-1.475 1.565-3.464 2.354-5.456 2.354z"/><path d="m295.17 324.935c-.197 0-.395-.008-.595-.023-4.13-.324-7.215-3.935-6.89-8.064l7.179-91.403c.324-4.129 3.954-7.212 8.063-6.89 4.13.324 7.215 3.935 6.89 8.064l-7.179 91.403c-.308 3.93-3.592 6.913-7.468 6.913z"/></g><ellipse cx="129.269" cy="293.898" fill="#f7f7f7" rx="41.854" ry="41.854" transform="matrix(.973 -.233 .233 .973 -64.822 38.134)"/><path d="m161.447 267.133c-12.71-15.28-33.996-19.201-51.012-10.608 4.978 2.508 9.537 6.049 13.33 10.608 14.781 17.772 12.358 44.161-5.413 58.942-2.491 2.072-5.156 3.794-7.93 5.195 14.427 7.267 32.4 5.795 45.612-5.195 17.771-14.781 20.194-41.17 5.413-58.942z" fill="#e6e6e6"/><circle cx="315.891" cy="192.712" fill="#f7f7f7" r="38.909"/><path d="m315.891 153.803c-6.303 0-12.25 1.508-17.516 4.169 12.688 6.41 21.393 19.554 21.393 34.74s-8.706 28.331-21.393 34.741c5.266 2.66 11.213 4.168 17.516 4.168 21.489 0 38.909-17.42 38.909-38.909-.001-21.489-17.421-38.909-38.909-38.909z" fill="#e6e6e6"/><ellipse cx="391.02" cy="253.543" fill="#457aab" rx="19.771" ry="19.771" transform="matrix(.035 -.999 .999 .035 123.913 635.427)"/><circle cx="293.667" cy="324.935" fill="#6cbff8" r="19.771"/><ellipse cx="244.488" cy="118.228" fill="#518fcc" rx="19.771" ry="19.771" transform="matrix(.988 -.155 .155 .988 -15.397 39.413)"/><ellipse cx="136.773" cy="170.119" fill="#457aab" rx="19.771" ry="19.771" transform="matrix(1 -.003 .003 1 -.549 .443)"/><ellipse cx="205.942" cy="270.394" fill="#6cbff8" rx="19.771" ry="19.771" transform="matrix(.529 -.849 .849 .529 -132.445 302.319)"/><ellipse cx="201.006" cy="397.895" fill="#457aab" rx="19.771" ry="19.771" transform="matrix(.585 -.811 .811 .585 -239.335 328.44)"/></g></svg>