<?xml version="1.0"?>
<svg xmlns="http://www.w3.org/2000/svg" xmlns:xlink="http://www.w3.org/1999/xlink" viewBox="0 0 512 512" width="512" height="512"><linearGradient id="a" gradientUnits="userSpaceOnUse" x1="256" x2="256" y1="20.767" y2="486.781"><stop offset="0" stop-color="#00efd1"/><stop offset="1" stop-color="#00acea"/></linearGradient><path d="m379.062 81.422a50.865 50.865 0 0 0 -71.769.013l-169.516 169.565-54.2 54.147a50.61 50.61 0 0 0 -.069 71.553l48.269 48.3h-82.4a10 10 0 0 0 0 20h297.4a10 10 0 0 0 0-20h-82.415l23.885-23.74 169.516-169.723a50.669 50.669 0 0 0 -.065-71.764zm-142.947 343.578h-76.123l-62.313-62.409a30.706 30.706 0 0 1 .037-43.4l47.125-47.028 122.2 122.014zm207.5-207.495-162.45 162.75-122.18-122.178 162.452-162.5a30.833 30.833 0 0 1 43.505.011l78.637 78.377a30.762 30.762 0 0 1 .035 43.541z" fill="url(#a)"/></svg>
