<?xml version="1.0" encoding="iso-8859-1"?>
<!-- Generator: Adobe Illustrator 19.0.0, SVG Export Plug-In . SVG Version: 6.00 Build 0)  -->
<svg version="1.1" id="Capa_1" xmlns="http://www.w3.org/2000/svg" xmlns:xlink="http://www.w3.org/1999/xlink" x="0px" y="0px"
	 viewBox="0 0 415.739 415.739" style="enable-background:new 0 0 415.739 415.739;" xml:space="preserve">
<path style="fill:#4DCFE0;" d="M413.257,116.736c0.522-0.522,0.522-1.045,0.522-1.567c0-0.522,0.522-1.045,0.522-1.045
	c0-0.522,0.522-1.045,0.522-1.567c0-0.522,0-0.522,0.522-1.045c0.522-2.09,0.522-4.18,0-6.269c0-0.522,0-0.522-0.522-1.045
	c0-0.522-0.522-1.045-0.522-1.567c0-0.522-0.522-1.045-0.522-1.045c0-0.522-0.522-1.045-0.522-1.567
	c-0.522-0.522-0.522-1.045-1.045-1.045c0-0.522-0.522-0.522-0.522-1.045l-49.633-52.245c-5.747-6.269-15.673-6.269-21.943-0.522
	c-6.269,5.747-6.269,15.673-0.522,21.943l24.555,25.6H283.69c-4.702,0-8.882,2.09-12.016,5.747L106.58,291.234H15.673
	C6.792,291.234,0,298.026,0,306.907c0,8.882,6.792,15.673,15.673,15.673h98.22c4.702,0,8.882-2.09,12.016-5.224L291.004,124.05
	h72.62l-24.555,25.6c-5.747,6.269-5.747,16.196,0.522,22.465c3.135,3.135,6.792,4.18,10.971,4.18c4.18,0,8.359-1.567,11.494-4.702
	l49.633-52.245c0.522-0.522,0.522-0.522,0.522-1.045C412.735,117.781,413.257,117.258,413.257,116.736z"/>
<g>
	<path style="fill:#1185E0;" d="M172.931,195.103c-4.702,0-8.882-2.09-12.016-5.747L106.58,124.05H15.673
		C6.792,124.05,0,117.258,0,108.377s6.792-15.673,15.673-15.673h98.22c4.702,0,8.882,2.09,12.016,5.747l59.037,71.053
		c5.747,6.792,4.702,16.718-2.09,21.943C180.245,194.058,176.588,195.103,172.931,195.103z"/>
	<path style="fill:#1185E0;" d="M413.257,315.266c0.522-0.522,0.522-1.045,0.522-1.567s0.522-1.045,0.522-1.045
		c0-0.522,0.522-1.045,0.522-1.567c0-0.522,0-0.522,0.522-1.045c0.522-2.09,0.522-4.18,0-6.269c0-0.522,0-0.522-0.522-1.045
		c0-0.522-0.522-1.045-0.522-1.567c0-0.522-0.522-1.045-0.522-1.045c0-0.522-0.522-1.045-0.522-1.567
		c-0.522-0.522-0.522-1.045-1.045-1.045c0-0.522-0.522-0.522-0.522-1.045l-49.633-52.245c-5.747-6.269-15.673-6.269-21.943-0.522
		c-6.269,5.747-6.269,15.673-0.522,21.943l24.555,25.6h-73.143l-54.857-65.306c-5.747-6.792-15.673-7.314-21.943-2.09
		c-6.792,5.747-7.314,15.673-2.09,21.943l59.559,71.053c3.135,3.657,7.314,5.747,12.016,5.747h79.935l-24.555,25.6
		c-5.747,6.269-5.747,16.196,0.522,22.465c3.135,3.135,6.792,4.18,10.971,4.18c4.18,0,8.359-1.567,11.494-4.702l49.633-52.245
		c0.522-0.522,0.522-0.522,0.522-1.045C412.735,316.311,413.257,315.789,413.257,315.266z"/>
</g>
<g>
</g>
<g>
</g>
<g>
</g>
<g>
</g>
<g>
</g>
<g>
</g>
<g>
</g>
<g>
</g>
<g>
</g>
<g>
</g>
<g>
</g>
<g>
</g>
<g>
</g>
<g>
</g>
<g>
</g>
</svg>
